<svg xmlns="http://www.w3.org/2000/svg" viewBox="0 0 512 512" role="img" aria-label="CalcNinja logo">
  <defs>
    <linearGradient id="bg" x1="64" y1="48" x2="448" y2="464" gradientUnits="userSpaceOnUse">
      <stop offset="0" stop-color="#0f172a"/>
      <stop offset="0.55" stop-color="#111827"/>
      <stop offset="1" stop-color="#020617"/>
    </linearGradient>
    <linearGradient id="rim" x1="112" y1="96" x2="400" y2="416" gradientUnits="userSpaceOnUse">
      <stop offset="0" stop-color="#60a5fa"/>
      <stop offset="0.5" stop-color="#a78bfa"/>
      <stop offset="1" stop-color="#f472b6"/>
    </linearGradient>
    <linearGradient id="panel" x1="136" y1="112" x2="380" y2="408" gradientUnits="userSpaceOnUse">
      <stop offset="0" stop-color="rgba(255,255,255,0.16)"/>
      <stop offset="1" stop-color="rgba(255,255,255,0.05)"/>
    </linearGradient>
    <filter id="shadow" x="-20%" y="-20%" width="140%" height="140%">
      <feDropShadow dx="0" dy="16" stdDeviation="18" flood-color="#000000" flood-opacity="0.45"/>
    </filter>
    <filter id="glow" x="-40%" y="-40%" width="180%" height="180%">
      <feGaussianBlur stdDeviation="8" result="blur"/>
      <feColorMatrix in="blur" type="matrix" values="1 0 0 0 0.32  0 1 0 0 0.50  0 0 1 0 0.98  0 0 0 0.7 0"/>
      <feMerge><feMergeNode/><feMergeNode in="SourceGraphic"/></feMerge>
    </filter>
  </defs>
  <rect x="40" y="40" width="432" height="432" rx="104" fill="url(#bg)"/>
  <rect x="40" y="40" width="432" height="432" rx="104" fill="none" stroke="url(#rim)" stroke-width="10" opacity="0.9"/>
  <g filter="url(#shadow)">
    <rect x="118" y="96" width="276" height="320" rx="42" fill="url(#panel)" stroke="rgba(255,255,255,0.16)" stroke-width="2"/>
    <rect x="148" y="124" width="216" height="70" rx="18" fill="rgba(255,255,255,0.08)"/>
    <path d="M175 145h52M201 119v52M246 119h52M272 119v52M246 145h52M336 145h-52" stroke="#e5e7eb" stroke-width="8" stroke-linecap="round" opacity="0.92"/>
    <g filter="url(#glow)" fill="#f8fafc">
      <circle cx="174" cy="236" r="18"/><rect x="226" y="218" width="36" height="36" rx="10"/>
      <path d="M304 223l18 18-18 18-18-18z"/>
      <path d="M160 305h60v12h-60zM160 336h148v12H160z"/>
      <path d="M314 290a22 22 0 1 1 0 44 22 22 0 0 1 0-44zm0 10a12 12 0 1 0 0 24 12 12 0 0 0 0-24z"/>
    </g>
    <text x="174" y="396" text-anchor="middle" font-family="Inter, Arial, sans-serif" font-size="32" font-weight="800" fill="#e2e8f0">CN</text>
    <text x="330" y="396" text-anchor="middle" font-family="Inter, Arial, sans-serif" font-size="26" font-weight="800" fill="#93c5fd">≠</text>
  </g>
</svg>